<svg width="763" height="865" viewBox="0 0 763 865" fill="none" xmlns="http://www.w3.org/2000/svg">
<rect width="763" height="865" fill="#1A3B5C"/>
<rect x="486.4" y="364.066" width="75.1003" height="95.1706" fill="#3878BC"/>
<path fill-rule="evenodd" clip-rule="evenodd" d="M369.239 410.864C369.239 424.723 373.879 436.184 383.16 445.247C392.531 454.22 403.953 458.707 417.429 458.707C423.497 458.707 429.208 457.596 434.563 455.375C440.006 453.154 444.558 450.266 448.216 446.712C455.891 439.338 460.576 431.387 462.272 422.858V405.533H417.429V416.928L437.641 422.858C436.481 427.389 434.161 431.031 430.681 433.786C427.29 436.451 422.872 437.784 417.429 437.784C409.843 437.784 403.775 435.34 399.224 430.454C394.762 425.567 392.531 419.037 392.531 410.864C392.531 402.69 394.762 396.16 399.224 391.273C403.775 386.387 409.977 383.943 417.83 383.943C425.683 383.943 431.395 387.364 434.964 394.205H462.272C459.059 384.432 453.392 376.791 445.271 371.283C437.151 365.775 427.87 363.021 417.429 363.021C403.953 363.021 392.531 367.552 383.16 376.614C373.879 385.587 369.239 397.004 369.239 410.864ZM201.5 381.678V364.353H275.658V381.678H249.957V457.907H227.067V381.678H201.5ZM360.98 393.006C360.98 399.314 358.705 405.4 354.154 411.263C351.744 414.284 348.13 416.772 343.311 418.726C338.581 420.592 332.959 421.525 326.445 421.525H312.255V457.907H289.365V364.353H326.445C337.332 364.353 345.81 367.152 351.878 372.749C357.946 378.346 360.98 385.098 360.98 393.006ZM312.255 404.2H326.445C329.925 404.2 332.647 403.178 334.61 401.135C336.663 399.092 337.689 396.426 337.689 393.139C337.689 389.763 336.663 387.009 334.61 384.876C332.558 382.744 329.836 381.678 326.445 381.678H312.255V404.2ZM486.399 389.629C493.459 389.629 499.181 383.907 499.181 376.848C499.181 369.788 493.459 364.066 486.399 364.066C479.34 364.066 473.617 369.788 473.617 376.848C473.617 383.907 479.34 389.629 486.399 389.629ZM486.4 396.384H474.615V459.237H486.4H498.185V412.721L510.049 405.36V396.384H498.185H486.4Z" fill="white"/>
<path d="M523.95 342.789L561.5 364.075V459.236L523.95 480.865V342.789Z" fill="#73AAE6"/>
<path fill-rule="evenodd" clip-rule="evenodd" d="M523.441 595.455V617.087H504.455V623.002H523.441V706.347H504.455V712.262H523.441V733.893L561.5 711.523V617.483L523.441 595.455ZM529.357 605.715V723.553L555.584 708.138V620.894L529.357 605.715Z" fill="white"/>
<path d="M383.171 698.272C373.889 689.209 369.249 677.747 369.249 663.887C369.249 650.026 373.889 638.609 383.171 629.635C392.542 620.572 403.965 616.041 417.441 616.041C427.883 616.041 437.164 618.795 445.285 624.304C453.407 629.813 459.074 637.454 462.287 647.227H434.978C431.408 640.386 425.696 636.965 417.843 636.965C409.989 636.965 403.786 639.408 399.235 644.295C394.773 649.182 392.542 655.712 392.542 663.887C392.542 672.061 394.773 678.591 399.235 683.478C403.786 688.365 409.855 690.808 417.441 690.808C422.885 690.808 427.303 689.475 430.694 686.81C434.174 684.056 436.495 680.413 437.655 675.881L417.441 669.951V658.556H462.287V675.881C460.591 684.411 455.906 692.363 448.23 699.738C444.571 703.292 440.02 706.179 434.576 708.401C429.221 710.622 423.51 711.732 417.441 711.732C403.965 711.732 392.542 707.245 383.171 698.272Z" fill="white"/>
<path d="M201.5 617.374V634.699H227.069V710.933H249.96V634.699H275.663V617.374H201.5Z" fill="white"/>
<path fill-rule="evenodd" clip-rule="evenodd" d="M354.162 664.286C358.714 658.422 360.99 652.336 360.99 646.028C360.99 638.12 357.955 631.367 351.887 625.77C345.818 620.172 337.34 617.374 326.452 617.374H289.37V710.933H312.262V674.549H326.452C332.967 674.549 338.589 673.616 343.319 671.75C348.138 669.795 351.753 667.307 354.162 664.286ZM326.452 657.223H312.262V634.699H326.452C329.843 634.699 332.565 635.766 334.618 637.898C336.67 640.03 337.697 642.785 337.697 646.161C337.697 649.448 336.67 652.114 334.618 654.158C332.654 656.201 329.932 657.223 326.452 657.223Z" fill="white"/>
<path d="M486.416 642.652C493.475 642.652 499.198 636.929 499.198 629.869C499.198 622.81 493.475 617.087 486.416 617.087C479.356 617.087 473.633 622.81 473.633 629.869C473.633 636.929 479.356 642.652 486.416 642.652Z" fill="white"/>
<path d="M474.63 649.406H510.066V658.382L498.202 665.744V712.263H474.63V649.406Z" fill="white"/>
<path d="M201.5 129.011V111.686H275.658V129.011H249.957V205.24H227.067V129.011H201.5Z" fill="white"/>
<path d="M360.98 140.339C360.98 146.647 358.705 152.732 354.154 158.596C351.744 161.617 348.13 164.105 343.311 166.059C338.581 167.925 332.959 168.858 326.445 168.858H312.255V205.24H289.365V111.686H326.445C337.332 111.686 345.81 114.485 351.878 120.082C357.946 125.679 360.98 132.431 360.98 140.339ZM312.255 151.533H326.445C329.925 151.533 332.647 150.511 334.61 148.468C336.663 146.424 337.689 143.759 337.689 140.472C337.689 137.096 336.663 134.342 334.61 132.209C332.558 130.077 329.836 129.011 326.445 129.011H312.255V151.533Z" fill="white"/>
<path d="M383.16 192.579C373.879 183.517 369.239 172.056 369.239 158.196C369.239 144.337 373.879 132.92 383.16 123.947C392.531 114.884 403.953 110.353 417.429 110.353C427.87 110.353 437.151 113.108 445.271 118.616C453.392 124.124 459.059 131.765 462.272 141.538H434.964C431.395 134.697 425.683 131.276 417.83 131.276C409.977 131.276 403.775 133.72 399.224 138.606C394.762 143.493 392.531 150.023 392.531 158.196C392.531 166.37 394.762 172.9 399.224 177.787C403.775 182.673 409.843 185.116 417.429 185.116C422.872 185.116 427.29 183.784 430.681 181.118C434.161 178.364 436.481 174.722 437.641 170.19L417.429 164.261V152.866H462.272V170.19C460.576 178.72 455.891 186.671 448.216 194.045C444.558 197.599 440.006 200.487 434.563 202.708C429.208 204.929 423.497 206.039 417.429 206.039C403.953 206.039 392.531 201.553 383.16 192.579Z" fill="white"/>
<rect x="486.4" y="110.353" width="75.1003" height="96.2162" fill="#3878BC"/>
<circle cx="486.399" cy="123.135" r="12.7819" fill="white"/>
<path d="M486.4 135.917C493.459 135.917 499.181 130.194 499.181 123.135C499.181 116.076 493.459 110.353 486.4 110.353V110.353V135.917Z" fill="#D4E5F4"/>
<path d="M474.615 143.717H498.184V206.57H474.615V143.717Z" fill="white"/>
<path d="M523.95 89.0829L561.5 110.369V206.57L523.95 228.199L523.95 89.0829Z" fill="#EB4D00"/>
<path d="M486.4 143.717V206.57H498.185V160.054L510.049 152.693V143.717H486.4Z" fill="#D4E5F4"/>
<path fill-rule="evenodd" clip-rule="evenodd" d="M561.5 110.27L523.95 88.9834V110.353H561.5V206.57H523.95V228.199L561.5 206.57V110.27Z" fill="#FE663B"/>
</svg>
